<svg xmlns="http://www.w3.org/2000/svg" width="1038.62" height="1270.226" viewBox="0 0 1038.62 1270.226"><defs><style>.a{opacity:0.178;}.b,.c,.e{fill:none;}.b{stroke:#fff;stroke-width:5px;}.d,.f{stroke:none;}.f{fill:#fff;}</style></defs><g class="a" transform="translate(1019.907 -192.849) rotate(-30)"><g transform="translate(-1111.869 -114)"><g class="b" transform="translate(167.32 0)"><rect class="d" width="194.077" height="237.371"/><rect class="e" x="2.5" y="2.5" width="189.077" height="232.371"/></g><g class="c" transform="translate(0 0)"><path class="d" d="M170.927,323.794a269.211,269.211,0,0,1-41.751-19.618,269.973,269.973,0,0,1-69.831-58.159,269.344,269.344,0,0,1-26.584-37.053A265.352,265.352,0,0,1,.742,126.391H.313v-2.134q-.159-.81-.313-1.62H.313V0H528.405V122.638h.312q-.153.808-.312,1.615v2.139h-.429a265.282,265.282,0,0,1-32.02,82.572,269.342,269.342,0,0,1-26.583,37.053,270.005,270.005,0,0,1-69.832,58.159,270.849,270.849,0,0,1-228.613,19.618Z"/><path class="f" d="M 264.3585510253906 335.3812866210938 C 295.9019775390625 335.3812866210938 326.7549743652344 329.9042053222656 356.0603942871094 319.1023559570312 C 370.1961364746094 313.8911437988281 383.9814147949219 307.4135131835938 397.0336303710938 299.8492126464844 C 409.9386291503906 292.3711547851562 422.302978515625 283.7284240722656 433.7828369140625 274.1612854003906 C 445.2134704589844 264.6341552734375 455.90869140625 254.0717926025391 465.5712585449219 242.7676391601562 C 475.2658996582031 231.4251403808594 484.0433349609375 219.1908569335938 491.6596984863281 206.4044952392578 C 499.3588256835938 193.4797821044922 505.9718322753906 179.8209991455078 511.3149719238281 165.8077850341797 C 516.3030395507812 152.7241363525391 520.2605590820312 139.1246490478516 523.07763671875 125.3870010375977 L 523.4052124023438 123.7896041870117 L 523.4052124023438 122.6375732421875 L 523.4052124023438 5.000000476837158 L 5.313122272491455 5.000000476837158 L 5.313122272491455 122.6375732421875 L 5.313122272491455 123.7949295043945 L 5.639622688293457 125.3869323730469 C 8.458122253417969 139.1299285888672 12.41590785980225 152.7293548583984 17.40326499938965 165.8077087402344 C 22.74597930908203 179.8215026855469 29.35862159729004 193.4802093505859 37.05747985839844 206.4045715332031 C 44.67197799682617 219.1878509521484 53.44976425170898 231.4221496582031 63.14698028564453 242.7677154541016 C 72.80762481689453 254.0707855224609 83.50241088867188 264.633056640625 94.93398284912109 274.1611328125 C 106.4139785766602 283.728271484375 118.7782669067383 292.3710632324219 131.6837005615234 299.849365234375 C 144.73583984375 307.41357421875 158.5211944580078 313.8912048339844 172.6564788818359 319.102294921875 C 201.9621276855469 329.9042053222656 232.8151245117188 335.3812866210938 264.3585510253906 335.3812866210938 M 264.3585510253906 340.3812866210938 C 232.2240447998047 340.3812866210938 200.7889099121094 334.8006286621094 170.9272003173828 323.793701171875 C 156.5256958007812 318.4844970703125 142.4789733886719 311.8845825195312 129.1766204833984 304.1753540039062 C 116.0241928100586 296.5539245605469 103.4269104003906 287.7476501464844 91.73297882080078 278.0021362304688 C 80.08626556396484 268.2948608398438 69.189697265625 257.5334167480469 59.34612274169922 246.0162811279297 C 49.466552734375 234.4574279785156 40.52176666259766 221.9907836914062 32.76183700561523 208.9633636474609 C 24.91633605957031 195.7928619384766 18.17676544189453 181.8722076416016 12.7312650680542 167.5889282226562 C 7.641908168792725 154.2429962158203 3.614836692810059 140.4016418457031 0.7415510416030884 126.3914260864258 L 0.3131224513053894 126.3914260864258 L 0.3131224513053894 124.2576446533203 C 0.2069796025753021 123.7177124023438 0.1026938855648041 123.1779327392578 -2.040318031504285e-05 122.6375732421875 L 0.3131224513053894 122.6375732421875 L 0.3131224513053894 4.534040272119455e-07 L 528.4052124023438 4.534040272119455e-07 L 528.4052124023438 122.6375732421875 L 528.7171020507812 122.6375732421875 C 528.6149291992188 123.1762161254883 528.5108642578125 123.713996887207 528.4052124023438 124.2522125244141 L 528.4052124023438 126.3914260864258 L 527.9757080078125 126.3914260864258 C 525.102294921875 140.4040679931641 521.0742797851562 154.2450714111328 515.9869995117188 167.5889282226562 C 510.5404052734375 181.8733520507812 503.8008422851562 195.7928619384766 495.955322265625 208.9633636474609 C 488.1953430175781 221.9907836914062 479.251708984375 234.4574279785156 469.3721313476562 246.0162811279297 C 459.5274047851562 257.5334167480469 448.6308288574219 268.2948608398438 436.984130859375 278.0021362304688 C 425.2901916503906 287.7476501464844 412.6929931640625 296.5539245605469 399.5404663085938 304.1753540039062 C 386.2381896972656 311.8845825195312 372.19140625 318.4844970703125 357.7899169921875 323.793701171875 C 327.9281921386719 334.8006286621094 296.4942016601562 340.3812866210938 264.3585510253906 340.3812866210938 Z"/></g><g class="c" transform="translate(188.023 231.026)"><path class="d" d="M76.336,77.587a74.8,74.8,0,0,1-29.713-6.1,75.963,75.963,0,0,1-12.967-7.154,77.174,77.174,0,0,1-11.3-9.474A77.887,77.887,0,0,1,13.037,43.38,78.007,78.007,0,0,1,6,30.2,78.194,78.194,0,0,1,0,0H152.672a78.193,78.193,0,0,1-6,30.2,78.009,78.009,0,0,1-7.038,13.179,77.89,77.89,0,0,1-9.321,11.483,77.176,77.176,0,0,1-11.3,9.474,75.963,75.963,0,0,1-12.967,7.154A74.8,74.8,0,0,1,76.336,77.587Z"/><path class="f" d="M 76.33589172363281 72.58737182617188 C 85.95822143554688 72.58737182617188 95.29081726074219 70.6727294921875 104.074462890625 66.89663696289062 C 108.2984390258789 65.08075714111328 112.3732452392578 62.83268356323242 116.1856536865234 60.21482467651367 C 119.9646301269531 57.61991882324219 123.518798828125 54.63930130004883 126.7493667602539 51.35580062866211 C 129.9811706542969 48.07104110717773 132.9154815673828 44.45627593994141 135.4707641601562 40.61199188232422 C 138.0507049560547 36.73056411743164 140.2665557861328 32.58127593994141 142.0567779541016 28.27942085266113 C 145.1463623046875 20.85506439208984 146.9729766845703 13.04541873931885 147.5067749023438 4.999992370605469 L 5.165081977844238 5.000014781951904 C 5.69887638092041 13.04541397094727 7.525496959686279 20.85504531860352 10.61510467529297 28.27942085266113 C 12.40529537200928 32.58130264282227 14.62112903594971 36.73056411743164 17.20100975036621 40.61194229125977 C 19.75639152526855 44.45632553100586 22.69070053100586 48.07108688354492 25.92251014709473 51.35580062866211 C 29.15296173095703 54.63922882080078 32.70710372924805 57.61982345581055 36.48617553710938 60.21482467651367 C 40.29858016967773 62.83268356323242 44.37339019775391 65.08075714111328 48.59738922119141 66.89663696289062 C 57.38103485107422 70.6727294921875 66.71360778808594 72.58737182617188 76.33589172363281 72.58737182617188 M 76.33589172363281 77.58737182617188 C 66.03065490722656 77.58737182617188 56.03367614746094 75.53596496582031 46.62262725830078 71.49015808105469 C 42.09934234619141 69.54560852050781 37.73670196533203 67.13880157470703 33.65586853027344 64.33663177490234 C 29.61374855041504 61.56101608276367 25.81272506713867 58.37349319458008 22.35834312438965 54.86249160766602 C 18.90401077270508 51.3515625 15.76784324645996 47.4881591796875 13.03698635101318 43.37977600097656 C 10.28001022338867 39.23196792602539 7.912033557891846 34.79782485961914 5.998867034912109 30.20044326782227 C 2.018319368362427 20.63513374328613 9.849911293713376e-06 10.47427749633789 9.849911293713376e-06 1.543172220408451e-05 L 152.6718444824219 -8.377801350434311e-06 C 152.6718444824219 10.47572994232178 150.6531066894531 20.63620567321777 146.6730041503906 30.20044326782227 C 144.7598876953125 34.79763412475586 142.3919219970703 39.23182678222656 139.6348419189453 43.37977600097656 C 136.9040069580078 47.4881591796875 133.7678680419922 51.35153961181641 130.3135375976562 54.86249160766602 C 126.8589859008789 58.37361145019531 123.0579376220703 61.56113433837891 119.0159606933594 64.33663177490234 C 114.9351272583008 67.13880157470703 110.5724868774414 69.54560852050781 106.049201965332 71.49015808105469 C 96.63817596435547 75.53596496582031 86.64117431640625 77.58737182617188 76.33589172363281 77.58737182617188 Z"/></g></g><g transform="translate(-1111.869 707.094)"><g class="b" transform="translate(167.32 103.01)"><rect class="d" width="194.077" height="237.371"/><rect class="e" x="2.5" y="2.5" width="189.077" height="232.371"/></g><g class="c"><path class="d" d="M170.927,16.588a268.7,268.7,0,0,0-158.2,156.2,265.7,265.7,0,0,0-11.99,41.2H.313v2.134q-.159.81-.313,1.62H.313V340.381H528.405V217.744h.312q-.153-.808-.312-1.615V213.99h-.429a265.281,265.281,0,0,0-32.02-82.572A270.172,270.172,0,0,0,170.927,16.588Z"/><path class="f" d="M 264.3585510253906 5 C 232.8151245117188 5 201.9621276855469 10.47708129882812 172.6567077636719 21.2789306640625 C 158.5209655761719 26.49014282226562 144.7356872558594 32.9677734375 131.6834716796875 40.53207397460938 C 118.7783508300781 48.01022338867188 106.4140625 56.65292358398438 94.9342041015625 66.22000122070312 C 83.50225830078125 75.748291015625 72.80755615234375 86.31057739257812 63.14697265625 97.6136474609375 C 53.44976806640625 108.9591369628906 44.67196655273438 121.1934356689453 37.05740356445312 133.9767913818359 C 29.3587646484375 146.9007110595703 22.74612426757812 160.5594940185547 17.40313720703125 174.5739288330078 C 12.41607666015625 187.6514282226562 8.45819091796875 201.2508544921875 5.6395263671875 214.9944305419922 L 5.3131103515625 216.5860595703125 L 5.3131103515625 217.7437133789062 L 5.3131103515625 335.3812866210938 L 523.4051513671875 335.3812866210938 L 523.4051513671875 217.7437133789062 L 523.4051513671875 216.5913391113281 L 523.07763671875 214.9942932128906 C 520.2604370117188 201.2562866210938 516.3029174804688 187.6567840576172 511.3150634765625 174.5737152099609 C 505.9716186523438 160.5599365234375 499.3586120605469 146.9011383056641 491.6596984863281 133.9767150878906 C 484.0433349609375 121.1904296875 475.2658996582031 108.9561462402344 465.5714111328125 97.61378479003906 C 455.9084777832031 86.30935668945312 445.2132568359375 75.74691772460938 433.7831115722656 66.22015380859375 C 422.3027648925781 56.6527099609375 409.9384155273438 48.010009765625 397.0333862304688 40.53192138671875 C 383.9812622070312 32.96771240234375 370.1959228515625 26.49008178710938 356.0606079101562 21.27899169921875 C 326.7549743652344 10.47708129882812 295.9019775390625 5 264.3585510253906 5 M 264.3585510253906 0 C 296.4942016601562 0 327.9281921386719 5.580657958984375 357.7899169921875 16.58758544921875 C 372.19140625 21.89678955078125 386.2381286621094 28.4967041015625 399.5404663085938 36.2059326171875 C 412.6929931640625 43.82736206054688 425.2901306152344 52.63363647460938 436.984130859375 62.379150390625 C 448.6308288574219 72.08642578125 459.5274047851562 82.84793090820312 469.3721313476562 94.36500549316406 C 479.251708984375 105.9238586425781 488.1953430175781 118.3905029296875 495.955322265625 131.4179229736328 C 503.8008422851562 144.5884246826172 510.5403442382812 158.5079345703125 515.9869995117188 172.7923583984375 C 521.0742797851562 186.1362152099609 525.1021728515625 199.9772186279297 527.9757080078125 213.9898681640625 L 528.4051513671875 213.9898681640625 L 528.4051513671875 216.1290740966797 C 528.5107421875 216.6672973632812 528.6148071289062 217.2051391601562 528.7171020507812 217.7437133789062 L 528.4051513671875 217.7437133789062 L 528.4051513671875 340.3812866210938 L 0.3131103515625 340.3812866210938 L 0.3131103515625 217.7437133789062 L 0 217.7437133789062 C 0.10260009765625 217.2033538818359 0.20703125 216.66357421875 0.3131103515625 216.1236419677734 L 0.3131103515625 213.9898681640625 L 0.741455078125 213.9898681640625 C 3.61480712890625 199.9796447753906 7.641845703125 186.1382904052734 12.73126220703125 172.7923583984375 C 18.1767578125 158.5090789794922 24.916259765625 144.5884246826172 32.7618408203125 131.4179229736328 C 40.52175903320312 118.3905029296875 49.466552734375 105.9238586425781 59.34613037109375 94.36500549316406 C 69.18963623046875 82.84793090820312 80.08627319335938 72.08642578125 91.73291015625 62.379150390625 C 103.4269104003906 52.63363647460938 116.0242004394531 43.82736206054688 129.1766357421875 36.2059326171875 C 142.4789123535156 28.4967041015625 156.5256958007812 21.89678955078125 170.9271850585938 16.58758544921875 C 200.7889099121094 5.580657958984375 232.2240600585938 0 264.3585510253906 0 Z"/></g><g class="c" transform="translate(188.023 33.26)"><path class="d" d="M76.336,0A74.8,74.8,0,0,0,46.623,6.1a75.964,75.964,0,0,0-12.967,7.154A77.4,77.4,0,0,0,13.037,34.208,78.049,78.049,0,0,0,0,77.587H152.672a77.926,77.926,0,0,0-22.358-54.862,77.176,77.176,0,0,0-11.3-9.474A75.963,75.963,0,0,0,106.049,6.1,74.8,74.8,0,0,0,76.336,0Z"/><path class="f" d="M 76.33589172363281 4.999992370605469 C 66.71360778808594 4.999992370605469 57.38103485107422 6.914634704589844 48.59736633300781 10.69072723388672 C 44.37339019775391 12.50660705566406 40.298583984375 14.75468063354492 36.48619842529297 17.37253952026367 C 32.70703125 19.96758651733398 29.15289306640625 22.94818115234375 25.9224853515625 26.23158645629883 C 22.69071960449219 29.51625442504883 19.75640869140625 33.1309928894043 17.20106506347656 36.97537231445312 C 14.62115478515625 40.85675430297852 12.40531921386719 45.00601577758789 10.61508178710938 49.30792236328125 C 7.525466918945312 56.73235321044922 5.6988525390625 64.54196929931641 5.165054321289062 72.58732604980469 L 147.5067443847656 72.58737182617188 C 146.9729614257812 64.54195404052734 145.1463623046875 56.73230361938477 142.0567779541016 49.30796813964844 C 140.2665557861328 45.00608825683594 138.0507049560547 40.8568000793457 135.4708251953125 36.97542190551758 C 132.91552734375 33.13115692138672 129.9812316894531 29.51639556884766 126.7494125366211 26.23158645629883 C 123.518798828125 22.94806289672852 119.9646301269531 19.96744537353516 116.1856536865234 17.37253952026367 C 112.3732452392578 14.75468063354492 108.2984390258789 12.50660705566406 104.0744400024414 10.69070434570312 C 95.29081726074219 6.914634704589844 85.95822143554688 4.999992370605469 76.33589172363281 4.999992370605469 M 76.33589172363281 -7.62939453125e-06 C 86.64117431640625 -7.62939453125e-06 96.63817596435547 2.051399230957031 106.049201965332 6.097206115722656 C 110.5724868774414 8.041755676269531 114.9351272583008 10.44856262207031 119.0159606933594 13.250732421875 C 123.0579376220703 16.02622985839844 126.8589859008789 19.21375274658203 130.3135375976562 22.72487258911133 C 133.7678375244141 26.23582458496094 136.9040069580078 30.09920501708984 139.6348419189453 34.20758819580078 C 142.3919067382812 38.35553741455078 144.7598876953125 42.78973007202148 146.6730041503906 47.38692092895508 C 150.653076171875 56.95115661621094 152.6718139648438 67.11163330078125 152.6718139648438 77.58737182617188 L -1.52587890625e-05 77.58732604980469 C -1.52587890625e-05 67.11308288574219 2.018325805664062 56.95223236083984 5.99884033203125 47.38692092895508 C 7.912033081054688 42.7895393371582 10.28001403808594 38.35539627075195 13.03700256347656 34.20758819580078 C 15.76783752441406 30.09920501708984 18.90399169921875 26.23580169677734 22.35833740234375 22.72487258911133 C 25.81269836425781 19.21387100219727 29.61374664306641 16.02634811401367 33.65586853027344 13.250732421875 C 37.73670196533203 10.44856262207031 42.09934234619141 8.041755676269531 46.62262725830078 6.097206115722656 C 56.03367614746094 2.051399230957031 66.03065490722656 -7.62939453125e-06 76.33589172363281 -7.62939453125e-06 Z"/></g></g><line class="b" x2="529.979" transform="translate(-1112.5 449.569)"/><g class="c" transform="translate(-923.846 371.983)"><path class="d" d="M76.336,0c42.159,0,76.336,34.737,76.336,77.587s-34.177,77.587-76.336,77.587S0,120.437,0,77.587,34.177,0,76.336,0Z"/><path class="f" d="M 76.33555603027344 5 C 66.71324920654297 5 57.38067626953125 6.91461181640625 48.59705352783203 10.69068908691406 C 44.37307739257812 12.50657653808594 40.29829406738281 14.754638671875 36.48591613769531 17.37245178222656 C 32.70693969726562 19.96733093261719 29.15281677246094 22.94790649414062 25.92231750488281 26.23135375976562 C 22.69046020507812 29.51621246337891 19.75614929199219 33.13095092773438 17.20095825195312 36.97514343261719 C 14.62110900878906 40.85645294189453 12.40528869628906 45.00569152832031 10.61508178710938 49.3076171875 C 6.889205932617188 58.26102447509766 5.000015258789062 67.77555084228516 5.000015258789062 77.58695220947266 C 5.000015258789062 87.39833068847656 6.889205932617188 96.91287994384766 10.61508178710938 105.8662567138672 C 12.40528869628906 110.168212890625 14.62110900878906 114.3174514770508 17.20095825195312 118.1987380981445 C 19.75614929199219 122.0429534912109 22.69046020507812 125.6576690673828 25.92231750488281 128.9425201416016 C 29.15281677246094 132.2259826660156 32.70693969726562 135.20654296875 36.48591613769531 137.8014526367188 C 40.29829406738281 140.4192657470703 44.37307739257812 142.6673278808594 48.59705352783203 144.4832153320312 C 57.38067626953125 148.2592926025391 66.71324920654297 150.1739044189453 76.33555603027344 150.1739044189453 C 85.95786285400391 150.1739044189453 95.29043579101562 148.2592926025391 104.0740509033203 144.4832153320312 C 108.2980346679688 142.6673278808594 112.3727951049805 140.4192657470703 116.1851806640625 137.8014526367188 C 119.9641723632812 135.20654296875 123.5182723999023 132.2259826660156 126.7487716674805 128.9425201416016 C 129.9806518554688 125.6576690673828 132.9149322509766 122.0429534912109 135.4701538085938 118.1987380981445 C 138.0500030517578 114.3174514770508 140.2658233642578 110.168212890625 142.0560302734375 105.8662567138672 C 145.7819061279297 96.91287994384766 147.6710968017578 87.39833068847656 147.6710968017578 77.58695220947266 C 147.6710968017578 67.77555084228516 145.7819061279297 58.26102447509766 142.0560302734375 49.3076171875 C 140.2658233642578 45.00569152832031 138.0500030517578 40.85645294189453 135.4701538085938 36.97514343261719 C 132.9149322509766 33.13095092773438 129.9806518554688 29.51621246337891 126.7487716674805 26.23135375976562 C 123.5182723999023 22.94790649414062 119.9641723632812 19.96733093261719 116.1851806640625 17.37245178222656 C 112.3727951049805 14.754638671875 108.2980346679688 12.50657653808594 104.0740509033203 10.69068908691406 C 95.29043579101562 6.91461181640625 85.95786285400391 5 76.33555603027344 5 M 76.33555603027344 0 C 118.4945068359375 0 152.6710968017578 34.73685455322266 152.6710968017578 77.58695220947266 C 152.6710968017578 120.4370269775391 118.4945068359375 155.1739044189453 76.33555603027344 155.1739044189453 C 34.17658233642578 155.1739044189453 1.52587890625e-05 120.4370269775391 1.52587890625e-05 77.58695220947266 C 1.52587890625e-05 34.73685455322266 34.17658233642578 0 76.33555603027344 0 Z"/></g></g></svg>